<svg xmlns="http://www.w3.org/2000/svg" xml:space="preserve" style="shape-rendering:geometricPrecision;text-rendering:geometricPrecision;image-rendering:optimizeQuality" viewBox="0 0 6.827 8.533" fill-rule="evenodd" clip-rule="evenodd">
    <defs>
        <style>
            .fil0{fill:#000;fill-rule:nonzero}
        </style>
    </defs>
    <path class="fil0" d="M3.413 1.051C1.39 3.258 1.46 4.691 2.183 5.363c.322.3.776.45 1.23.45.455 0 .908-.15 1.231-.45.724-.672.793-2.105-1.23-4.312zm-1.34 4.43C1.287 4.748 1.19 3.211 3.352.882A.08.08 0 0 1 3.472.88c2.165 2.33 2.069 3.87 1.281 4.601-.354.329-.847.493-1.34.493-.492 0-.986-.164-1.34-.493z"/>
    <path class="fil0" d="M4.462 3.81a.08.08 0 0 0-.155.04c.001.001.188.71-.22 1.09a.08.08 0 0 0 .11.117c.476-.446.265-1.245.265-1.247z"/>
    <path style="fill:none" d="M0 0h6.827v6.827H0z"/>
</svg>
