<svg xmlns="http://www.w3.org/2000/svg" xml:space="preserve" style="shape-rendering:geometricPrecision;text-rendering:geometricPrecision;image-rendering:optimizeQuality" viewBox="0 0 6.827 8.533" fill-rule="evenodd" clip-rule="evenodd">
    <defs>
        <style>
            .fil0{fill:#000;fill-rule:nonzero}
        </style>
    </defs>
    <path class="fil0" d="M.933 3.154a.08.08 0 0 0 0 .16h2.925a.473.473 0 0 0 .356-.16.593.593 0 0 0 .13-.39.59.59 0 0 0-.139-.384.457.457 0 0 0-.347-.166.448.448 0 0 0-.302.12.562.562 0 0 0-.169.297.08.08 0 0 0 .157.034.401.401 0 0 1 .12-.213.29.29 0 0 1 .194-.078.3.3 0 0 1 .227.11c.06.07.099.17.099.28a.436.436 0 0 1-.09.286.318.318 0 0 1-.234.104H.933zM1.307 3.512a.08.08 0 0 0 0 .16H4.234a.318.318 0 0 1 .233.105c.063.073.09.177.09.286 0 .11-.038.209-.099.28a.3.3 0 0 1-.226.11.29.29 0 0 1-.195-.078.401.401 0 0 1-.12-.214.08.08 0 0 0-.156.034c.026.12.087.224.169.298.083.075.188.12.302.12a.457.457 0 0 0 .347-.166.59.59 0 0 0 .138-.384.593.593 0 0 0-.13-.39.473.473 0 0 0-.355-.16H1.307z"/>
    <path class="fil0" d="M1.474 3.836a.08.08 0 0 0 0 .16h1.689a.15.15 0 0 1 .108.049c.03.035.044.087.044.142a.213.213 0 0 1-.05.14.14.14 0 0 1-.104.051.134.134 0 0 1-.09-.036.197.197 0 0 1-.058-.105.08.08 0 0 0-.157.034.358.358 0 0 0 .108.19.292.292 0 0 0 .197.077.297.297 0 0 0 .225-.107.374.374 0 0 0 .089-.244c0-.09-.026-.18-.083-.247a.304.304 0 0 0-.231-.104H1.474zM4.575 3.205a.08.08 0 0 0 0 .16H5.66a.304.304 0 0 0 .23-.104.375.375 0 0 0 .083-.247.374.374 0 0 0-.088-.244.297.297 0 0 0-.225-.107.292.292 0 0 0-.197.078.358.358 0 0 0-.108.19.08.08 0 0 0 .156.033c.01-.042.03-.079.059-.104a.134.134 0 0 1 .09-.037c.04 0 .077.02.105.052.03.035.048.084.048.14a.219.219 0 0 1-.043.142.15.15 0 0 1-.109.049H4.575z"/>
    <path style="fill:none" d="M0 0h6.827v6.827H0z"/>
</svg>
